<svg xmlns="http://www.w3.org/2000/svg" xmlns:xlink="http://www.w3.org/1999/xlink" width="1080px" height="400px" viewBox="0 0 1080 400" version="1.1">
    <defs>
      <linearGradient x1="0" x2="1" id="G" gradientTransform="rotate(45)">
        <stop offset="0" stop-color="#FFC600"/>
        <stop offset="0.35" stop-color="#FFC600"/>
        <stop offset="0.8" stop-color="#F55555"/>
        <stop offset="1" stop-color="#F55555"/>
      </linearGradient>
      <mask id="p1">
        <circle fill="white" cx="0" cy="0" r="500"/>
        <circle fill="black" cx="0" cy="0" r="353.553390593273762"/>
        <path stroke="black" fill="black" d="M 203.553390593273762 203.553390593273762 A 150 150 1 0 1 503.553390593273762 503.553390593273762 Z"/>
        <rect fill="white" x="0" y="353.553390593273762" width="353.553390593273762" height="146.446609406726238"/>
        <circle fill="white" cx="353.553390593273762" cy="353.553390593273762" r="146.446609406726238"/>
      </mask>
    </defs>
    <g transform="translate(220, 204) scale(0.38)">
      <g mask="url(#p1)">
        <rect x="-500" y="-500" width="1000" height="1000" fill="url(#G)"/>
        <rect x="-500" y="-500" width="1000" height="500" fill="#FFC600" transform="rotate(30) translate(0, -36)"/>
      </g>
    </g>
    <g stroke="none" transform="translate(500, 100) scale(0.8)" stroke-width="1" fill="none" fill-rule="evenodd">
        <g id="千语" transform="translate(0.200000, 0.960000)" fill-rule="nonzero">
            <path d="M179.28,48.24 L179.28,141.12 L280.44,141.12 L304.92,111.6 L331.56,145.44 C333.48,147.84 334.44,149.7 334.44,151.02 C334.44,152.34 332.52,153 328.68,153 L179.28,153 L179.28,239.04 C179.28,260.16 179.46,276.42 179.82,287.82 C180.18,299.22 180.36,305.28 180.36,306 C180.36,309.36 176.52,313.44 168.84,318.24 C161.16,323.04 155.94,325.44 153.18,325.44 C150.42,325.44 149.04,322.08 149.04,315.36 L150.48,277.2 C151.2,260.64 151.56,245.28 151.56,231.12 L151.56,153 L37.08,153 C27.48,153 19.44,154.2 12.96,156.6 L1.13686838e-13,139.32 C9.12,140.52 19.08,141.12 29.88,141.12 L151.56,141.12 L151.56,53.28 C107.88,61.68 66,65.4 25.92,64.44 L25.56,59.4 C129,43.8 205.32,24 254.52,2.84217094e-14 L276.12,21.96 C278.52,24.36 279.72,26.52 279.72,28.44 C279.72,30.36 277.8,31.32 273.96,31.32 L267.84,30.96 C263.28,30.96 257.16,31.8 249.48,33.48 L179.28,48.24 Z" id="Path" fill="#FFC600"></path>
            <path d="M552.24,44.28 L505.08,44.28 C495.48,44.28 487.56,45.6 481.32,48.24 L467.64,31.68 C477,33.12 486.84,33.84 497.16,33.84 L636.12,33.84 L656.28,9.72 L680.4,37.8 C682.56,39.72 683.64,41.28 683.64,42.48 C683.64,43.68 681.6,44.28 677.52,44.28 L577.44,44.28 L564.84,95.4 L616.32,95.4 L626.76,81.36 L648.36,97.56 C651,99.72 652.32,101.58 652.32,103.14 C652.32,104.7 650.76,106.2 647.64,107.64 L640.44,111.6 L640.44,163.8 L650.88,163.8 L669.96,140.76 L692.64,167.4 C694.08,169.08 694.8,170.7 694.8,172.26 C694.8,173.82 693.24,174.6 690.12,174.6 L487.8,174.6 C478.92,174.6 471,175.8 464.04,178.2 L450.72,161.64 C459.6,163.08 469.44,163.8 480.24,163.8 L523.8,163.8 L537.84,105.84 L518.76,105.84 C508.92,105.84 500.88,107.04 494.64,109.44 L481.68,93.24 C490.56,94.68 500.28,95.4 510.84,95.4 L540,95.4 L552.24,44.28 Z M548.64,163.8 L616.68,163.8 L616.68,105.84 L562.68,105.84 L548.64,163.8 Z M387.36,15.48 C403.44,22.68 415.92,29.82 424.8,36.9 C433.68,43.98 438.12,51.24 438.12,58.68 C438.12,66.12 436.08,72.78 432,78.66 C427.92,84.54 423.84,87.48 419.76,87.48 C415.68,87.48 413.1,86.52 412.02,84.6 C410.94,82.68 410.16,79.56 409.68,75.24 C408,62.04 405.12,51.6 401.04,43.92 C396.96,36.24 391.32,28.2 384.12,19.8 L387.36,15.48 Z M475.56,239.4 C442.44,283.32 423.6,309.84 419.04,318.96 C417.6,321.84 415.98,323.28 414.18,323.28 C412.38,323.28 410.52,322.2 408.6,320.04 L394.92,303.48 C404.04,295.08 408.6,284.4 408.6,271.44 L408.6,138.6 L389.52,138.6 C378.96,138.6 370.92,140.16 365.4,143.28 L352.44,127.8 C363.48,128.52 373.44,128.88 382.32,128.88 L408.6,128.88 L420.12,111.96 L439.56,127.08 C442.44,129.24 443.88,131.1 443.88,132.66 C443.88,134.22 442.44,135.96 439.56,137.88 L433.08,142.92 L433.08,270.72 L470.88,235.08 L475.56,239.4 Z M623.88,299.52 L525.24,299.52 L525.24,317.52 C525.24,320.88 524.64,323.34 523.44,324.9 C522.24,326.46 519.12,328.38 514.08,330.66 C509.04,332.94 505.68,334.08 504,334.08 C501.6,334.08 500.4,332.64 500.4,329.76 C500.4,326.88 500.58,321.3 500.94,313.02 C501.3,304.74 501.48,292.2 501.48,275.4 L501.48,225 C501.48,215.4 501.12,204.6 500.4,192.6 L530.28,209.88 L618.84,209.88 L632.52,194.04 L655.92,212.76 C658.56,214.68 659.88,216.24 659.88,217.44 C659.88,218.64 658.8,220.08 656.64,221.76 L648.72,227.52 L648.72,277.92 C648.72,287.04 649.08,295.08 649.8,302.04 L650.88,317.88 C650.88,322.2 647.28,325.92 640.08,329.04 C632.88,332.16 628.38,333.72 626.58,333.72 C624.78,333.72 623.88,332.16 623.88,329.04 L623.88,299.52 Z M525.24,288.72 L623.88,288.72 L623.88,220.32 L525.24,220.32 L525.24,288.72 Z" id="Shape" fill="#F55555"></path>
        </g>
    </g>
</svg>
