<svg xmlns="http://www.w3.org/2000/svg" xmlns:xlink="http://www.w3.org/1999/xlink" width="1080px" height="400px" viewBox="0 0 1080 400" version="1.1">
    <defs>
      <linearGradient x1="0" x2="1" id="G" gradientTransform="rotate(45)">
        <stop offset="0" stop-color="#FFC600"/>
        <stop offset="0.35" stop-color="#FFC600"/>
        <stop offset="0.8" stop-color="#F55555"/>
        <stop offset="1" stop-color="#F55555"/>
      </linearGradient>
      <mask id="p1">
        <circle fill="white" cx="0" cy="0" r="500"/>
        <circle fill="black" cx="0" cy="0" r="353.553390593273762"/>
        <path stroke="black" fill="black" d="M 203.553390593273762 203.553390593273762 A 150 150 1 0 1 503.553390593273762 503.553390593273762 Z"/>
        <rect fill="white" x="0" y="353.553390593273762" width="353.553390593273762" height="146.446609406726238"/>
        <circle fill="white" cx="353.553390593273762" cy="353.553390593273762" r="146.446609406726238"/>
      </mask>
    </defs>
    <g transform="translate(220, 204) scale(0.38)">
      <g mask="url(#p1)">
        <rect x="-500" y="-500" width="1000" height="1000" fill="url(#G)"/>
        <rect x="-500" y="-500" width="1000" height="500" fill="#FFC600" transform="rotate(30) translate(0, -36)"/>
      </g>
    </g>
    <g stroke="none" transform="translate(520, 100) scale(1.8)" stroke-width="1" fill="none" fill-rule="evenodd">
      <g id="千语" transform="translate(0.640000, 0.560000)" fill="#FFC600" fill-rule="nonzero">
        <path d="M0.96,60.32 C0.32,62.24 -1.42108547e-14,64.16 -1.42108547e-14,65.92 C-1.42108547e-14,68.8 0.16,70.72 0.64,71.52 C14.4,72.64 30.56,73.44 49.28,73.92 C49.12,78.88 49.12,83.84 49.12,88.8 C49.12,99.04 49.6,109.28 50.72,119.2 C51.84,119.36 53.44,119.52 55.68,119.52 C58.08,119.52 60,119.36 61.28,119.2 C61.92,109.28 62.24,98.72 62.24,87.84 C62.24,83.36 62.08,78.88 62.08,74.24 C76.64,74.56 92.8,74.72 110.56,74.72 C110.88,73.44 111.2,71.68 111.2,69.12 L111.2,64 C94.88,63.04 78.4,62.24 61.92,61.6 C61.92,54.88 61.76,48 61.6,40.96 C59.84,40.16 57.92,39.68 56,39.68 C54.24,39.68 52.48,40.16 50.72,40.96 C50.24,47.68 49.92,54.4 49.76,61.12 C33.44,60.64 17.28,60.32 0.96,60.32 Z M93.6,7.2 C67.36,10.08 40.16,13.6 12,17.92 C12,21.44 12.64,24.8 13.76,28.32 C40.96,25.76 68.32,22.24 95.84,17.44 C95.36,13.6 94.56,10.08 93.6,7.2 Z" id="Shape"></path>
        <path fill="#F55555" d="M153.76,41.28 C152.8,44.32 152.48,47.36 152.48,50.24 C158.88,52.16 165.44,53.6 171.84,54.56 C169.6,71.52 168.16,88.16 167.36,104.32 C175.84,105.6 183.68,106.08 190.88,106.08 C191.2,102.88 191.52,100.16 191.52,97.6 C187.04,97.28 182.72,96.8 178.56,96.48 C180.64,80 182.08,63.2 182.72,46.24 C172.48,44.32 162.88,42.56 153.76,41.28 Z M163.2,14.08 C162.08,16.32 161.28,18.88 160.8,21.6 C166.88,26.08 174.08,28.48 182.08,29.12 C183.36,26.88 184.48,24.32 185.12,21.76 C177.12,17.6 169.76,15.04 163.2,14.08 Z M210.56,0 C209.28,2.72 208.48,5.92 208,9.6 C237.28,16.16 259.52,19.36 274.88,19.36 C276.16,16.48 276.96,13.44 277.28,10.08 C254.88,5.92 232.64,2.56 210.56,0 Z M223.52,37.44 C216.64,37.6 209.28,37.92 201.6,38.24 C201.6,41.44 201.76,44.32 202.4,47.04 C207.68,47.36 213.76,47.68 220.8,47.84 C219.68,52.96 218.56,58.24 217.6,63.84 C220.16,65.6 223.52,66.4 227.68,66.4 C229.28,62.24 231.2,56.16 233.44,48.32 C240.8,48.48 248.96,48.64 258.08,48.64 C258.56,52.64 259.36,57.44 260.48,62.88 C264.32,62.88 267.84,62.4 271.2,61.44 C270.56,52.16 269.76,44.8 269.12,39.04 C257.44,38.24 246.4,37.76 236.16,37.44 C237.12,33.28 238.24,28.8 239.36,23.84 C236.48,22.24 233.12,21.28 228.96,20.8 C226.88,25.92 225.12,31.52 223.52,37.44 Z M256,69.76 C234.08,69.76 214.24,70.08 196.32,70.4 C195.68,72 195.52,73.6 195.52,75.36 C195.52,77.44 195.68,79.04 196.16,80.32 C199.36,80.96 219.36,81.12 256,81.12 C269.92,81.12 277.6,80.96 279.04,80.32 C279.36,79.68 279.68,78.08 279.68,75.68 C279.68,73.44 279.36,71.84 279.04,70.88 C273.28,70.24 265.6,69.76 256,69.76 Z M260.96,91.84 C242.88,91.84 226.24,92.8 210.88,94.4 C211.52,106.88 212.96,117.44 215.52,126.08 C235.68,126.08 251.04,125.12 261.92,123.52 C262.24,122.56 262.56,117.76 262.56,108.96 C262.56,103.04 261.92,97.28 260.96,91.84 Z M224.96,116.32 L223.68,102.72 L250.72,101.44 L251.36,115.2 L224.96,116.32 Z" id="Shape"></path>
      </g>
    </g>
</svg>
