<svg xmlns="http://www.w3.org/2000/svg" xmlns:xlink="http://www.w3.org/1999/xlink" width="1080px" height="400px" viewBox="0 0 1080 400" version="1.1">
    <defs>
      <linearGradient x1="0" x2="1" id="G" gradientTransform="rotate(45)">
        <stop offset="0" stop-color="#FFC600"/>
        <stop offset="0.35" stop-color="#FFC600"/>
        <stop offset="0.8" stop-color="#F55555"/>
        <stop offset="1" stop-color="#F55555"/>
      </linearGradient>
      <mask id="p1">
        <circle fill="white" cx="0" cy="0" r="500"/>
        <circle fill="black" cx="0" cy="0" r="353.553390593273762"/>
        <path stroke="black" fill="black" d="M 203.553390593273762 203.553390593273762 A 150 150 1 0 1 503.553390593273762 503.553390593273762 Z"/>
        <rect fill="white" x="0" y="353.553390593273762" width="353.553390593273762" height="146.446609406726238"/>
        <circle fill="white" cx="353.553390593273762" cy="353.553390593273762" r="146.446609406726238"/>
      </mask>
    </defs>
    <g transform="translate(220, 204) scale(0.38)">
      <g mask="url(#p1)">
        <rect x="-500" y="-500" width="1000" height="1000" fill="url(#G)"/>
        <rect x="-500" y="-500" width="1000" height="500" fill="#FFC600" transform="rotate(30) translate(0, -36)"/>
      </g>
    </g>
    <g stroke="none" transform="translate(500, 100) scale(0.8)" stroke-width="1" fill="none" fill-rule="evenodd">
        <g id="千语" transform="translate(0.769531, 0.019531)" fill="#F55555" fill-rule="nonzero">
            <path d="M182.8125,8.26171875 C187.734375,8.26171875 193.59375,15.8789062 200.390625,31.1132812 L200.390625,32.8710938 C200.390625,34.9804688 195.703125,37.6171875 186.328125,40.78125 C185.859375,40.78125 184.101562,40.4882812 181.054688,39.9023438 C159.960937,44.2382812 149.414062,46.875 149.414062,47.8125 L149.414062,48.6914062 C156.796875,54.4335938 161.777344,58.828125 164.355469,61.875 C165.527344,63.75 166.113281,65.5078125 166.113281,67.1484375 C162.011719,72.3046875 159.960937,75.8203125 159.960937,77.6953125 L159.960937,88.2421875 C160.195312,89.4140625 160.78125,90 161.71875,90 C199.804688,87.0703125 218.847656,83.5546875 218.847656,79.453125 C225.878906,78.28125 231.738281,75.6445312 236.425781,71.5429688 L238.183594,71.5429688 C244.980469,72.9492188 250.839844,75.5859375 255.761719,79.453125 C255.761719,81.2109375 260.15625,82.3828125 268.945312,82.96875 L272.460938,90 L272.460938,96.1523438 C272.460938,96.9726562 270.996094,98.4375 268.066406,100.546875 L267.1875,100.546875 C258.398438,100.546875 254.003906,99.9609375 254.003906,98.7890625 L252.246094,99.6679688 L250.488281,99.6679688 C246.738281,99.6679688 242.636719,99.0820312 238.183594,97.9101562 C238.183594,99.7851562 218.261719,101.835938 178.417969,104.0625 C174.199219,105.820312 169.804688,106.699219 165.234375,106.699219 L161.71875,106.699219 C159.84375,106.699219 158.671875,112.851562 158.203125,125.15625 L158.203125,182.285156 C158.203125,189.433594 157.910156,198.222656 157.324219,208.652344 C157.910156,210.410156 158.203125,214.511719 158.203125,220.957031 C157.03125,227.988281 156.445312,231.796875 156.445312,232.382812 L157.324219,234.140625 C155.800781,251.132812 150.820312,259.628906 142.382812,259.628906 C139.453125,258.691406 136.230469,252.832031 132.714844,242.050781 C132.363281,242.050781 131.484375,237.363281 130.078125,227.988281 C130.664062,204.785156 131.542969,192.1875 132.714844,190.195312 L131.835938,179.648438 C131.835938,177.773438 132.421875,173.671875 133.59375,167.34375 C133.007812,164.0625 132.714844,161.71875 132.714844,160.3125 C132.714844,159.84375 133.007812,158.085938 133.59375,155.039062 C132.421875,152.695312 131.835938,149.472656 131.835938,145.371094 C131.835938,143.847656 132.128906,141.503906 132.714844,138.339844 C132.128906,135.996094 131.835938,133.945312 131.835938,132.1875 L132.714844,127.792969 C132.011719,117.246094 130.546875,111.972656 128.320312,111.972656 L124.804688,111.972656 C118.945312,111.972656 113.085938,112.558594 107.226562,113.730469 L105.46875,112.851562 C96.2109375,116.367188 79.21875,120.175781 54.4921875,124.277344 C54.4921875,125.332031 47.7539062,127.089844 34.2773438,129.550781 L32.5195312,129.550781 C30.4101562,129.550781 25.4296875,126.035156 17.578125,119.003906 C5.859375,115.488281 0,112.558594 0,110.214844 C0,109.394531 0.87890625,108.515625 2.63671875,107.578125 L11.4257812,107.578125 L16.6992188,108.457031 C19.7460938,106.113281 25.6054688,104.648438 34.2773438,104.0625 C34.2773438,103.476562 34.5703125,103.183594 35.15625,103.183594 L39.5507812,104.0625 L92.2851562,97.03125 C93.4570312,95.625 97.265625,94.7460938 103.710937,94.3945312 L114.257812,94.3945312 L117.773438,90.8789062 L119.53125,90.8789062 C125.390625,90.9960938 128.320312,91.5820312 128.320312,92.6367188 C131.25,91.6992188 132.714844,88.7695312 132.714844,83.8476562 C132.714844,81.8554688 132.421875,80.390625 131.835938,79.453125 L132.714844,74.1796875 L132.714844,70.6640625 C128.964844,56.015625 125.15625,48.6914062 121.289063,48.6914062 C115.664062,50.4492188 105.703125,52.2070312 91.40625,53.9648438 L55.3710938,61.875 C55.3710938,63.1640625 50.0976562,64.6289062 39.5507812,66.2695312 L38.671875,66.2695312 C35.625,66.2695312 33.8671875,65.390625 33.3984375,63.6328125 L33.3984375,61.875 C33.3984375,58.9453125 41.6015625,56.015625 58.0078125,53.0859375 C69.4921875,50.7421875 80.9179688,47.2265625 92.2851562,42.5390625 C107.402344,37.734375 120,32.4609375 130.078125,26.71875 C144.726562,23.203125 152.050781,20.5664062 152.050781,18.8085938 L151.171875,10.8984375 C153.046875,9.7265625 154.804688,9.140625 156.445312,9.140625 L157.324219,9.140625 C163.886719,9.140625 172.382812,8.84765625 182.8125,8.26171875 Z" id="Path"></path>
            <path d="M587.109375,0 L587.988281,0 C591.035156,0 595.722656,3.515625 602.050781,10.546875 C607.324219,10.546875 609.960938,13.4765625 609.960938,19.3359375 C598.59375,21.09375 587.167969,23.4375 575.683594,26.3671875 C572.402344,26.3671875 562.441406,28.125 545.800781,31.640625 C543.457031,32.578125 542.285156,33.4570312 542.285156,34.2773438 L542.285156,36.9140625 C550.488281,42.1875 554.589844,46.875 554.589844,50.9765625 C552.832031,55.3125 551.953125,57.9492188 551.953125,58.8867188 L551.953125,65.0390625 L563.378906,66.796875 C569.121094,65.5078125 576.445312,60.234375 585.351562,50.9765625 L587.988281,50.9765625 C595.019531,55.6640625 598.535156,59.4726562 598.535156,62.4023438 L598.535156,65.9179688 C592.675781,69.0820312 589.746094,72.5976562 589.746094,76.4648438 L581.835938,116.015625 L584.472656,117.773438 C603.222656,114.492188 612.597656,111.855469 612.597656,109.863281 C612.597656,108.925781 617.578125,104.53125 627.539062,96.6796875 C627.539062,95.859375 628.417969,94.9804688 630.175781,94.0429688 L633.691406,94.0429688 C636.855469,99.6679688 643.59375,106.992188 653.90625,116.015625 L654.785156,120.410156 C653.613281,120.644531 653.027344,121.230469 653.027344,122.167969 C652.558594,122.167969 648.75,121.875 641.601562,121.289062 C617.34375,123.046875 602.402344,125.390625 596.777344,128.320312 C590.449219,128.320312 581.953125,130.078125 571.289062,133.59375 C564.375,133.59375 543.28125,137.402344 508.007812,145.019531 L499.21875,145.019531 C490.195312,145.019531 483.457031,142.089844 479.003906,136.230469 L479.003906,133.59375 C479.003906,132.421875 483.105469,130.957031 491.308594,129.199219 C494.472656,129.785156 497.109375,130.078125 499.21875,130.078125 C500.976562,128.90625 505.371094,127.734375 512.402344,126.5625 L519.433594,112.5 L518.554688,110.742188 C518.554688,107.929688 520.3125,100.898438 523.828125,89.6484375 L523.828125,87.0117188 L520.3125,86.1328125 L508.886719,89.6484375 L508.007812,89.6484375 C497.460938,84.2578125 491.894531,80.4492188 491.308594,78.2226562 L491.308594,77.34375 C491.894531,75.5859375 493.652344,74.7070312 496.582031,74.7070312 C502.558594,75.2929688 506.074219,75.5859375 507.128906,75.5859375 C510.410156,74.0625 518.027344,72.3046875 529.980469,70.3125 L529.101562,64.1601562 L529.101562,63.28125 C532.03125,49.6875 533.496094,42.3632812 533.496094,41.3085938 C533.496094,36.6210938 532.910156,34.2773438 531.738281,34.2773438 C530.566406,35.3320312 525.292969,36.2109375 515.917969,36.9140625 C515.917969,38.3203125 508.300781,40.078125 493.066406,42.1875 L490.429688,42.1875 C489.960938,42.1875 487.03125,39.2578125 481.640625,33.3984375 L481.640625,30.7617188 C481.757812,29.5898438 482.34375,29.0039062 483.398438,29.0039062 L489.550781,29.0039062 C519.433594,25.1367188 537.597656,21.0351562 544.042969,16.6992188 L547.558594,16.6992188 C548.144531,16.6992188 548.4375,16.9921875 548.4375,17.578125 C555.46875,14.6484375 560.449219,13.1835938 563.378906,13.1835938 L565.136719,14.0625 C574.863281,9.140625 580.429688,5.91796875 581.835938,4.39453125 C581.835938,3.69140625 583.59375,2.2265625 587.109375,0 Z M427.148438,10.546875 L428.90625,10.546875 C431.835938,10.546875 435.351562,12.890625 439.453125,17.578125 C448.828125,22.6171875 453.515625,26.71875 453.515625,29.8828125 C453.515625,35.15625 451.757812,43.359375 448.242188,54.4921875 L448.242188,55.3710938 C450,55.9570312 450.878906,56.5429688 450.878906,57.1289063 L468.457031,52.734375 L471.09375,52.734375 C471.09375,48.28125 474.023438,45.6445312 479.882812,44.8242188 L481.640625,44.8242188 C484.6875,49.1601562 489.667969,52.96875 496.582031,56.25 L497.460938,58.0078125 L497.460938,60.6445312 C497.460938,61.5820313 496.289062,62.7539062 493.945312,64.1601562 C481.523438,64.1601562 464.53125,67.3828125 442.96875,73.828125 C418.476562,80.2734375 392.402344,86.4257812 364.746094,92.2851562 L360.351562,92.2851562 C357.65625,89.0039062 350.332031,86.3671875 338.378906,84.375 L337.5,82.6171875 L337.5,79.9804688 C337.5,79.1601562 338.671875,78.28125 341.015625,77.34375 C341.953125,77.34375 345.46875,77.6367188 351.5625,78.2226562 L360.351562,77.34375 L362.109375,78.2226562 C367.851562,75.5273438 378.105469,72.890625 392.871094,70.3125 C404.355469,66.2109375 411.09375,64.1601562 413.085938,64.1601562 L416.601562,65.0390625 C424.804688,63.515625 428.90625,60.8789062 428.90625,57.1289063 C428.90625,33.1054688 425.097656,21.09375 417.480469,21.09375 C415.722656,18.984375 414.84375,16.9335938 414.84375,14.9414062 C417.304688,12.0117188 421.40625,10.546875 427.148438,10.546875 Z M527.34375,128.320312 L528.222656,128.320312 C530.097656,126.210938 539.179688,124.160156 555.46875,122.167969 C559.335938,122.167969 562.558594,108.398438 565.136719,80.859375 C564.550781,79.8046875 564.257812,78.9257812 564.257812,78.2226562 L562.5,78.2226562 C548.4375,81.7382812 541.40625,84.6679688 541.40625,87.0117188 C537.890625,100.488281 533.203125,114.257812 527.34375,128.320312 Z M464.941406,87.0117188 C470.800781,87.0117188 473.730469,90.234375 473.730469,96.6796875 L473.730469,98.4375 C473.730469,100.195312 470.800781,101.660156 464.941406,102.832031 C462.714844,101.660156 460.371094,101.074219 457.910156,101.074219 C444.199219,106.933594 429.257812,111.328125 413.085938,114.257812 L409.570312,114.257812 C403.125,113.320312 399.902344,110.097656 399.902344,104.589844 L399.902344,103.710938 C399.902344,102.1875 411.035156,100.136719 433.300781,97.5585938 C435.527344,95.4492188 443.730469,93.1054688 457.910156,90.5273438 C459.902344,88.1835938 462.246094,87.0117188 464.941406,87.0117188 Z M464.941406,124.804688 L466.699219,124.804688 C467.167969,124.804688 470.097656,128.320312 475.488281,135.351562 L475.488281,137.109375 C475.488281,139.6875 462.011719,142.617188 435.058594,145.898438 C433.769531,147.890625 426.152344,149.941406 412.207031,152.050781 C411.972656,150.410156 408.75,147.480469 402.539062,143.261719 L402.539062,141.503906 C402.539062,140.683594 403.417969,139.804688 405.175781,138.867188 C408.925781,138.867188 412.734375,139.160156 416.601562,139.746094 C435.46875,137.871094 446.015625,134.648438 448.242188,130.078125 C457.148438,126.5625 462.714844,124.804688 464.941406,124.804688 Z M594.140625,145.898438 C609.609375,156.796875 617.519531,162.949219 617.871094,164.355469 L617.871094,165.234375 C617.871094,166.523438 611.71875,177.949219 599.414062,199.511719 C599.414062,201.386719 599.121094,203.4375 598.535156,205.664062 L608.203125,209.179688 C609.375,211.40625 609.960938,213.75 609.960938,216.210938 L609.960938,217.089844 C609.960938,221.191406 606.738281,223.242188 600.292969,223.242188 L596.777344,225.878906 L587.988281,225 L586.230469,225 C566.660156,228.515625 552.597656,231.445312 544.042969,233.789062 C541.699219,233.203125 539.355469,232.910156 537.011719,232.910156 C534.316406,244.628906 531.972656,250.488281 529.980469,250.488281 C527.753906,251.660156 525.117188,252.246094 522.070312,252.246094 C517.96875,250.605469 515.917969,247.96875 515.917969,244.335938 C517.089844,242.460938 517.675781,240.996094 517.675781,239.941406 C515.332031,239.941406 513.867188,229.394531 513.28125,208.300781 C512.695312,208.300781 512.402344,206.835938 512.402344,203.90625 L513.28125,197.753906 C511.640625,195.644531 510.175781,188.027344 508.886719,174.902344 C508.886719,173.496094 506.835938,166.464844 502.734375,153.808594 L502.734375,152.929688 L504.492188,152.050781 C506.953125,152.050781 510.46875,154.6875 515.039062,159.960938 C518.554688,163.59375 523.242188,165.9375 529.101562,166.992188 C561.796875,163.710938 579.960938,158.730469 583.59375,152.050781 C588.28125,147.949219 591.796875,145.898438 594.140625,145.898438 Z M467.578125,150.292969 L468.457031,150.292969 C471.152344,150.292969 474.375,152.929688 478.125,158.203125 C482.226562,159.492188 485.449219,162.128906 487.792969,166.113281 L487.792969,171.386719 C486.972656,175.605469 483.164062,183.808594 476.367188,195.996094 C476.367188,196.699219 479.589844,200.214844 486.035156,206.542969 L486.035156,210.058594 C486.035156,214.160156 483.398438,217.089844 478.125,218.847656 C474.84375,218.261719 472.5,217.96875 471.09375,217.96875 C464.765625,217.96875 451.875,220.898438 432.421875,226.757812 C429.492188,229.101562 428.027344,233.203125 428.027344,239.0625 C429.785156,244.335938 430.664062,247.851562 430.664062,249.609375 C426.914062,261.210938 423.984375,267.363281 421.875,268.066406 L418.359375,268.066406 C411.328125,268.066406 407.8125,263.671875 407.8125,254.882812 C407.226562,254.882812 406.933594,253.710938 406.933594,251.367188 C406.933594,245.390625 407.226562,240.703125 407.8125,237.304688 C405.820312,199.101562 402.597656,177.128906 398.144531,171.386719 C398.144531,169.277344 396.09375,165.46875 391.992188,159.960938 C391.992188,158.4375 393.457031,156.972656 396.386719,155.566406 C397.792969,155.566406 402.773438,158.496094 411.328125,164.355469 C413.4375,164.355469 415.78125,166.992188 418.359375,172.265625 C420.117188,172.851562 420.996094,173.4375 420.996094,174.023438 C421.699219,174.023438 423.457031,172.265625 426.269531,168.75 L428.90625,168.75 C430.898438,168.75 433.535156,169.042969 436.816406,169.628906 C446.894531,164.824219 455.683594,159.257812 463.183594,152.929688 L467.578125,150.292969 Z M548.4375,175.78125 C544.335938,175.195312 541.113281,174.902344 538.769531,174.902344 L534.375,174.902344 C532.03125,179.707031 530.859375,182.636719 530.859375,183.691406 C532.03125,185.683594 532.617188,187.441406 532.617188,188.964844 C532.03125,194.121094 531.738281,197.050781 531.738281,197.753906 C533.496094,201.738281 534.375,204.960938 534.375,207.421875 C534.375,208.710938 534.082031,211.933594 533.496094,217.089844 C534.667969,220.605469 537.011719,222.363281 540.527344,222.363281 C549.316406,219.433594 561.328125,217.089844 576.5625,215.332031 C577.5,213.574219 579.257812,203.027344 581.835938,183.691406 C582.421875,183.691406 583.300781,181.933594 584.472656,178.417969 C583.886719,171.972656 582.421875,168.75 580.078125,168.75 C570.820312,170.976562 562.03125,172.734375 553.710938,174.023438 C553.710938,174.609375 551.953125,175.195312 548.4375,175.78125 Z M426.269531,183.691406 C426.269531,200.097656 427.734375,208.300781 430.664062,208.300781 C448.242188,205.957031 457.03125,203.90625 457.03125,202.148438 C458.789062,189.492188 459.667969,182.460938 459.667969,181.054688 C459.082031,178.007812 458.789062,175.078125 458.789062,172.265625 L457.910156,172.265625 C454.277344,175.195312 447.246094,176.660156 436.816406,176.660156 C435.527344,178.300781 432.011719,180.058594 426.269531,181.933594 L426.269531,183.691406 Z" id="Shape"></path>
        </g>
    </g>
</svg>
