<svg width="1180px" height="403px" viewBox="0 0 1180 403" version="1.1" xmlns="http://www.w3.org/2000/svg" xmlns:xlink="http://www.w3.org/1999/xlink">
    <defs>
      <linearGradient x1="0" x2="1" id="Gradient">
        <stop offset="0" stop-color="#E3C402"/>
        <stop offset="1" stop-color="#F48C00"/>
      </linearGradient>
      <linearGradient id="bg" href="#Gradient" gradientTransform="translate(0.20 0.20) rotate(45) scale(0.7)"></linearGradient>
      <mask id="p1">
        <circle fill="white" cx="0" cy="0" r="500" ></circle>
        <circle fill="black" cx="0" cy="0" r="353.553390593273762"></circle>
        <path stroke="black" fill="black" d="M 203.553390593273762 203.553390593273762 A 150 150 1 0 1 503.553390593273762 503.553390593273762 Z" />
        <rect fill="white" x="0" y="353.553390593273762" width="353.553390593273762" height="146.446609406726238"></rect>
      </mask>
    </defs>

    <g transform="translate(210, 210) scale(0.38)">
      <g mask="url(#p1)">
        <rect x="-500" y="-500" width="1000" height="1000" fill="url(#bg)"></rect>
      </g>
      <g mask="url(#p1)">
        <rect x="-500" y="-500" width="1000" height="500" fill="#E3C402" transform="rotate(45)"></rect>
      </g>
      <g>
        <circle fill="#F48C00" cx="353.553390593273762" cy="353.553390593273762" r="146.446609406726238"></circle>
      </g>
    </g>

    <g stroke="none" stroke-width="1" fill="none" fill-rule="evenodd">
        <g id="歐陽毓謙" transform="translate(480.400000, 197.440000)" fill="#E3C402" fill-rule="nonzero">
            <path d="M124.74,48.06 L140.4,48.06 C139.14,59.4 137.34,71.1 135.72,79.02 L148.68,82.98 C152.1,70.74 155.34,51.3 157.5,34.56 L146.52,31.68 L144,32.4 L141.66,32.4 L141.66,32.58 L106.74,32.58 C108.9,23.04 110.7,12.96 112.14,2.7 L95.58,0.18 C92.34,28.44 86.04,55.98 74.52,73.08 C78.48,75.24 85.68,80.28 88.56,82.98 C94.32,73.44 99,61.56 102.96,48.06 L108.72,48.06 L108.72,70.02 C108.72,83.34 105.3,117 83.88,140.94 L83.88,133.56 L14.22,133.56 L14.22,22.86 L81.9,22.86 L81.9,8.64 L1.13686838e-13,8.64 L1.13686838e-13,160.38 L14.22,160.38 L14.22,147.96 L76.68,147.96 C75.06,149.4 73.44,150.66 71.64,151.92 C74.52,154.8 79.2,161.82 80.82,165.42 C105.48,147.6 115.02,116.28 116.64,101.34 C118.44,115.74 126.9,148.32 149.04,165.42 C151.2,161.46 156.06,154.62 159.12,151.2 C129.78,128.52 124.56,85.14 124.74,70.02 L124.74,48.06 Z M40.5,42.66 L59.76,42.66 L59.76,61.92 L40.5,61.92 L40.5,42.66 Z M27.9,72.36 L72.72,72.36 L72.72,32.22 L27.9,32.22 L27.9,72.36 Z M61.74,90.54 L71.82,90.54 L71.82,112.86 L61.74,112.86 L61.74,90.54 Z M52.92,123.3 L81.18,123.3 L81.18,80.1 L52.92,80.1 L52.92,123.3 Z M28.8,90.54 L37.98,90.54 L37.98,112.86 L28.8,112.86 L28.8,90.54 Z M20.16,123.3 L46.98,123.3 L46.98,80.1 L20.16,80.1 L20.16,123.3 Z"></path>
            <path d="M308.16,31.32 L260.82,31.32 L260.82,19.8 L308.16,19.8 L308.16,31.32 Z M308.16,54.72 L260.82,54.72 L260.82,42.84 L308.16,42.84 L308.16,54.72 Z M324,7.56 L245.52,7.56 L245.52,66.78 L324,66.78 L324,7.56 Z M221.94,7.56 L219.42,8.28 L179.82,8.28 L179.82,165.78 L194.58,165.78 L194.58,23.4 L213.66,23.4 C210.24,35.46 205.56,50.94 201.24,63.18 C213.12,76.32 216.18,88.02 216.18,97.2 C216.18,102.42 215.46,107.1 212.94,108.9 C211.32,109.98 209.34,110.34 207.18,110.34 C204.84,110.52 201.78,110.34 198.18,110.16 C200.52,114.12 202.14,120.24 202.32,124.38 C206.64,124.74 210.96,124.56 214.2,124.2 C217.8,123.66 221.04,122.58 223.74,120.6 C228.96,116.64 231.3,109.08 231.3,98.64 C231.3,87.84 228.42,75.42 216.36,61.2 C222.12,46.62 228.24,28.44 233.1,14.04 L221.94,7.56 Z M337.68,89.46 L337.68,75.78 L231.12,75.78 L231.12,89.46 L252.36,89.46 C245.16,103.32 234,115.2 221.22,123.12 C224.28,125.46 229.5,130.68 231.84,133.38 C239.4,127.98 246.6,121.14 252.9,113.22 L265.32,113.22 C256.32,129.06 242.46,142.74 227.52,151.92 C230.4,154.44 235.08,159.84 237.06,162.72 C254.16,151.02 270.54,133.38 280.8,113.22 L293.04,113.22 C286.38,130.86 275.58,146.16 262.08,156.42 C265.32,158.58 270.54,163.62 272.7,166.14 C287.28,153.72 300.06,134.82 307.62,113.22 L316.08,113.22 C314.46,137.88 312.48,147.78 310.14,150.66 C308.7,152.28 307.26,152.64 305.1,152.46 C302.58,152.46 297.36,152.46 291.6,151.92 C293.76,155.52 295.2,161.28 295.38,165.24 C302.04,165.42 308.16,165.42 311.94,165.06 C316.62,164.52 320.04,163.26 322.92,159.84 C327.42,154.8 329.76,141.3 331.74,106.38 C331.92,104.22 332.1,100.08 332.1,100.08 L262.08,100.08 C264.24,96.66 266.04,93.06 267.84,89.46 L337.68,89.46 Z"></path>
            <path d="M431.46,58.86 L432.72,73.44 C450.9,72.54 475.92,71.28 500.4,69.84 C502.74,73.98 504.72,77.76 505.98,81.18 L519.12,74.34 C514.98,63.9 504.36,48.78 494.28,38.16 L482.22,44.28 C485.64,48.06 488.88,52.38 492.12,56.7 L459.36,57.96 C462.96,50.4 466.92,42.12 470.16,34.2 L469.44,34.02 L516.6,34.02 L516.6,19.8 L481.32,19.8 L481.32,1.62 L465.12,1.62 L465.12,19.8 L431.46,19.8 L431.46,34.02 L454.14,34.02 C451.44,41.76 448.02,50.76 444.42,58.5 L431.46,58.86 Z M386.28,62.82 C389.88,68.4 393.3,76.32 394.38,81.54 L404.28,77.58 C403.02,72.54 399.42,64.98 395.64,59.22 L386.28,62.82 Z M383.22,101.88 C387.36,108 391.32,116.28 392.76,121.86 L402.84,117.54 C401.22,111.96 397.08,104.04 392.58,98.28 L383.22,101.88 Z M374.76,123.12 C375.84,114.66 377.1,105.48 378.18,96.12 L409.5,96.12 C408.96,107.1 408.24,116.1 407.52,123.12 L374.76,123.12 Z M411.12,56.52 C410.76,66.42 410.58,75.24 410.22,83.16 L379.62,83.16 C380.52,74.16 381.42,65.16 382.32,56.52 L411.12,56.52 Z M433.44,135.9 L433.44,123.12 L422.28,123.12 C422.82,115.74 423.54,106.74 424.08,96.12 L435.96,96.12 L435.96,83.16 L424.62,83.16 C424.98,73.8 425.52,63.18 425.88,51.48 C426.06,49.32 426.06,44.1 426.06,44.1 L373.32,44.1 C375.48,40.5 377.64,36.54 379.62,32.4 L429.12,32.4 L429.12,18 L385.92,18 C387.72,13.32 389.34,8.64 390.78,3.96 L374.76,-5.68434189e-14 C369.72,17.28 361.26,35.1 351.54,46.62 C355.14,48.78 361.8,53.82 364.86,56.7 C366.12,55.26 367.2,53.64 368.28,51.84 C367.56,61.74 366.48,72.54 365.22,83.16 L352.44,83.16 L352.44,96.12 L363.78,96.12 C361.62,112.86 359.46,128.7 357.3,140.4 L371.88,142.56 L372.96,135.9 L405.9,135.9 C404.82,141.66 403.74,145.08 402.48,146.7 C400.68,149.04 399.24,149.58 396.54,149.58 C393.66,149.58 387.54,149.4 380.7,148.86 C383.04,152.82 384.84,159.12 385.02,163.26 C391.86,163.44 398.52,163.44 403.2,163.08 C408.24,162.36 411.84,160.74 415.26,155.7 C417.6,152.64 419.4,146.7 420.84,135.9 L433.44,135.9 Z M441.72,106.2 C441.72,123.12 439.92,142.38 424.08,156.78 C427.68,158.76 432.72,163.26 435.06,166.32 C452.88,149.58 455.4,127.08 455.4,106.38 L455.4,81 L441.72,81 L441.72,106.2 Z M465.3,158.58 L477.9,158.58 L477.9,83.16 L465.3,83.16 L465.3,158.58 Z M504.18,152.82 C503.46,152.82 502.74,152.46 502.38,151.92 C502.02,151.2 501.84,149.04 501.84,145.8 L501.84,81 L488.7,81 L488.7,144.54 C488.7,155.7 489.6,158.58 491.94,161.1 C494.1,163.26 497.7,164.34 501.12,164.34 L508.14,164.34 C510.48,164.34 513.36,163.8 515.34,162.72 C517.5,161.28 519.12,159.12 519.84,155.88 C520.74,153 521.28,144.36 521.64,136.98 C518.22,136.08 513.72,133.74 511.02,131.58 C510.84,139.14 510.84,145.08 510.48,147.6 C510.3,150.12 509.76,151.56 509.22,152.1 C508.68,152.64 507.96,152.82 507.06,152.82 L504.18,152.82 Z"></path>
            <path d="M586.44,6.84 L541.08,6.84 L541.08,19.98 L586.44,19.98 L586.44,6.84 Z M591.84,30.6 L532.8,30.6 L532.8,44.1 L591.84,44.1 L591.84,30.6 Z M586.98,54.9 L540.18,54.9 L540.18,67.86 L586.98,67.86 L586.98,54.9 Z M540.18,92.16 L586.98,92.16 L586.98,79.02 L540.18,79.02 L540.18,92.16 Z M634.32,103.86 L634.32,89.28 L646.92,89.28 L646.92,103.86 L634.32,103.86 Z M634.32,64.26 L646.92,64.26 L646.92,75.96 L634.32,75.96 L634.32,64.26 Z M634.32,39.6 L646.92,39.6 L646.92,50.76 L634.32,50.76 L634.32,39.6 Z M675.9,64.26 L675.9,75.96 L661.68,75.96 L661.68,64.26 L675.9,64.26 Z M675.9,103.86 L661.68,103.86 L661.68,89.28 L675.9,89.28 L675.9,103.86 Z M572.94,142.74 L553.32,142.74 L553.32,116.82 L572.94,116.82 L572.94,142.74 Z M689.04,117.36 L689.04,89.28 L698.58,89.28 L698.58,75.96 L689.04,75.96 L689.04,50.76 L661.68,50.76 L661.68,39.6 L696.78,39.6 L696.78,25.56 L669.78,25.56 C673.2,19.98 677.34,12.96 681.66,6.3 L666.18,0.54 C663.84,7.56 658.98,17.82 655.2,24.3 L658.08,25.56 L624.96,25.56 L631.08,22.86 C629.1,16.92 624.06,7.56 619.74,0.72 L606.42,5.94 C610.02,12.06 613.62,19.62 615.96,25.56 L594.18,25.56 L594.18,39.6 L619.92,39.6 L619.92,50.76 L599.04,50.76 L599.04,64.26 L619.92,64.26 L619.92,75.96 L591.3,75.96 L591.3,89.28 L619.92,89.28 L619.92,103.86 L598.32,103.86 L598.32,117.36 L614.16,117.36 C607.5,129.6 597.06,141.66 586.44,148.5 L586.44,103.32 L540,103.32 L540,164.52 L553.32,164.52 L553.32,156.06 L586.44,156.06 L586.44,150.3 C589.86,153.36 593.82,157.86 595.98,161.28 C604.62,154.8 613.08,144.54 619.92,133.2 L619.92,165.06 L634.32,165.06 L634.32,117.36 L646.92,117.36 L646.92,165.06 L661.68,165.06 L661.68,128.52 C669.42,140.76 679.32,152.64 688.5,160.02 C690.84,156.24 695.88,151.02 699.3,148.14 C689.04,141.3 677.52,129.24 669.6,117.36 L689.04,117.36 Z"></path>
        </g>
        <g id="Qwam" transform="translate(479.975477, 60.623978)" fill="#F48C00" fill-rule="nonzero">
            <path d="M99.6185286,97.8746594 C93.73297,96.5667575 86.7574932,96.3487738 80.8719346,97.8746594 C92.4250681,91.1171662 98.5286104,72.8065395 98.5286104,54.7138965 C98.5286104,21.3623978 81.7438692,0 49.0463215,0 C16.5667575,0 -1.13686838e-13,21.3623978 -1.13686838e-13,54.7138965 C-1.13686838e-13,87.6294278 16.5667575,109.209809 49.0463215,109.209809 C68.4468665,109.209809 84.5776567,104.196185 99.6185286,108.991826 L99.6185286,97.8746594 Z M87.1934605,54.4959128 C87.1934605,80.8719346 75.8583106,98.9645777 49.0463215,98.9645777 C22.6702997,98.9645777 11.5531335,80.8719346 11.5531335,54.4959128 C11.5531335,27.6839237 22.6702997,9.59128065 49.0463215,9.59128065 C75.8583106,9.59128065 87.1934605,27.6839237 87.1934605,54.4959128 Z"></path>
            <polygon  points="232.86376 30.2997275 221.52861 30.2997275 199.948229 90.2452316 179.239782 30.2997275 169.648501 30.2997275 148.722071 90.2452316 127.141689 30.2997275 116.024523 30.2997275 143.27248 106.376022 152.86376 106.376022 174.226158 45.9945504 196.024523 106.376022 205.39782 106.376022"></polygon>
            <path d="M317.253406,106.376022 C317.253406,106.376022 314.201635,97.2207084 314.201635,89.5912807 L314.201635,49.4822888 C314.201635,35.7493188 298.942779,29.2098093 283.901907,29.2098093 C272.13079,29.2098093 263.19346,32.0435967 257.089918,36.4032698 L257.089918,46.2125341 C264.93733,41.1989101 274.092643,38.3651226 283.247956,38.3651226 C294.147139,38.3651226 303.73842,41.852861 303.73842,50.1362398 C303.73842,68.4468665 249.024523,49.4822888 249.024523,84.1416894 C249.024523,101.798365 262.321526,108.555858 275.618529,108.555858 C288.26158,108.555858 297.634877,104.196185 304.610354,97.4386921 C305.046322,101.798365 306.354223,106.376022 306.354223,106.376022 L317.253406,106.376022 Z M303.520436,81.3079019 C303.520436,91.3351499 290.223433,99.6185286 277.144414,99.6185286 C268.643052,99.6185286 259.487738,96.1307902 259.487738,84.5776567 C259.487738,64.0871935 292.839237,72.1525886 303.520436,64.7411444 L303.520436,81.3079019 Z"></path>
            <path d="M440.708447,106.376022 L440.708447,54.4959128 C440.708447,38.5831063 431.117166,29.2098093 413.896458,29.2098093 C403.651226,29.2098093 394.713896,34.4414169 389.482289,41.4168937 C385.776567,34.0054496 378.147139,29.2098093 367.46594,29.2098093 C358.092643,29.2098093 349.373297,34.2234332 343.705722,41.4168937 L343.705722,30.2997275 L333.024523,30.2997275 L333.024523,106.376022 L343.705722,106.376022 L343.705722,63.4332425 C343.705722,51.0081744 355.258856,38.5831063 365.940054,38.5831063 C378.583106,38.5831063 382.070845,47.0844687 382.070845,56.893733 L382.070845,106.376022 L392.752044,106.376022 L392.752044,59.7275204 C392.752044,47.9564033 403.215259,38.5831063 414.114441,38.5831063 C425.231608,38.5831063 430.245232,45.3405995 430.245232,54.7138965 L430.245232,106.376022 L440.708447,106.376022 Z" ></path>
        </g>
    </g>
</svg>
