<svg width="1024px" height="1024px" viewBox="0 0 403 403" version="1.1" xmlns="http://www.w3.org/2000/svg" xmlns:xlink="http://www.w3.org/1999/xlink">
    <g id="Page-1" stroke="none" stroke-width="1" fill="none" fill-rule="evenodd">
        <g id="Group">
            <path d="M201.5,0 C312.785377,0 403,90.2146229 403,201.5 C403,228.096711 397.847042,253.489884 388.48502,276.735625 C375.641147,268.061968 360.161716,263 343.5,263 C338.648665,263 333.897561,263.429143 329.28258,264.25154 C338.706137,245.183483 344,223.709966 344,201 C344,122.023281 279.976719,58 201,58 C122.023281,58 58,122.023281 58,201 C58,279.976719 122.023281,344 201,344 C223.709966,344 245.183483,338.706137 264.253832,329.285131 C263.429143,333.897561 263,338.648665 263,343.5 C263,360.161716 268.061968,375.641147 276.731928,388.484316 C253.489884,397.847042 228.096711,403 201.5,403 C90.2146229,403 0,312.785377 0,201.5 C0,90.2146229 90.2146229,0 201.5,0 Z" id="Combined-Shape" fill="#E3C402"></path>
            <circle id="Oval" fill="#F48C00" cx="343.5" cy="343.5" r="59.5"></circle>
        </g>
    </g>
</svg>