<?xml version="1.0" standalone="no"?>
<!DOCTYPE svg PUBLIC "-//W3C//DTD SVG 20010904//EN"
 "http://www.w3.org/TR/2001/REC-SVG-20010904/DTD/svg10.dtd">
<svg version="1.0" xmlns="http://www.w3.org/2000/svg"
 width="700.000000pt" height="700.000000pt" viewBox="0 0 700.000000 700.000000"
 preserveAspectRatio="xMidYMid meet">
<metadata>
Created by potrace 1.14, written by Peter Selinger 2001-2017
</metadata>
<g transform="translate(0.000000,700.000000) scale(0.100000,-0.100000)"
fill="#000000" stroke="none">
<path d="M3278 6996 c-1 -2 -42 -6 -89 -10 -47 -4 -95 -8 -105 -10 -10 -2 -48
-7 -84 -12 -36 -4 -67 -8 -70 -9 -3 -1 -25 -5 -50 -9 -25 -4 -101 -21 -170
-38 -69 -16 -134 -31 -146 -34 -39 -7 -228 -72 -346 -117 -141 -55 -364 -163
-471 -229 -43 -26 -81 -48 -83 -48 -5 0 -205 -134 -234 -157 -8 -6 -51 -40
-95 -74 -426 -331 -813 -825 -1020 -1299 -25 -58 -50 -114 -55 -125 -45 -93
-150 -427 -176 -560 -2 -11 -10 -54 -19 -95 -29 -147 -36 -200 -52 -370 -15
-164 -8 -592 12 -711 2 -13 6 -46 9 -74 9 -78 23 -156 51 -285 54 -251 162
-550 288 -800 61 -122 169 -312 187 -330 3 -3 31 -43 62 -90 170 -255 431
-534 708 -755 92 -74 370 -265 386 -265 4 0 15 -6 23 -14 31 -27 311 -165 449
-220 266 -107 553 -185 821 -222 25 -3 57 -8 71 -10 163 -25 682 -25 842 1 13
2 46 7 73 10 71 10 87 13 115 18 14 3 43 8 65 12 192 35 625 167 625 191 0 4
-15 32 -34 63 -58 96 -117 230 -142 321 -40 146 -47 202 -48 375 0 99 2 199 6
222 l7 42 -67 -31 c-96 -44 -265 -106 -332 -123 -8 -2 -40 -11 -70 -19 -30 -8
-66 -17 -80 -20 -187 -37 -191 -38 -340 -52 -123 -12 -504 -5 -529 10 -3 2
-28 7 -54 10 -119 16 -279 54 -387 91 -41 15 -79 28 -85 29 -37 10 -143 55
-235 99 -118 57 -250 137 -390 234 -53 37 -206 170 -279 242 -316 314 -537
696 -651 1126 -29 108 -35 135 -46 205 -3 19 -7 45 -9 56 -2 12 -6 46 -9 75
-4 30 -9 72 -11 94 -16 137 -1 467 30 635 22 118 25 130 46 210 229 845 877
1503 1724 1749 72 21 192 48 255 57 19 3 42 7 50 9 8 3 44 7 80 10 36 4 81 8
100 10 47 6 336 6 380 1 19 -3 67 -7 105 -11 39 -3 86 -10 105 -15 19 -5 53
-11 75 -15 77 -11 94 -15 212 -49 759 -219 1368 -785 1646 -1531 58 -154 102
-330 122 -480 3 -22 8 -49 10 -61 17 -81 24 -391 12 -524 -18 -194 -66 -424
-124 -590 -29 -84 -35 -100 -86 -217 l-36 -82 52 7 c66 9 328 9 387 0 187 -27
395 -101 531 -188 25 -17 49 -30 53 -30 14 0 106 270 146 430 30 120 74 352
86 455 4 33 9 76 11 95 8 69 10 517 2 595 -15 162 -21 220 -24 225 -2 3 -6 30
-10 60 -9 75 -69 337 -99 435 -188 620 -523 1153 -997 1590 -413 380 -944 668
-1487 805 -121 30 -244 56 -312 65 -19 3 -46 7 -60 10 -13 2 -52 7 -86 11 -33
3 -74 8 -90 10 -33 5 -540 14 -546 10z"/>
<path d="M5888 2065 c-2 -1 -28 -5 -58 -9 -160 -17 -342 -90 -471 -189 -86
-65 -100 -78 -158 -142 -137 -152 -233 -355 -258 -545 -13 -103 -8 -270 12
-357 3 -13 7 -33 10 -45 11 -51 40 -128 76 -201 206 -421 678 -649 1144 -553
90 18 111 26 235 83 291 136 514 435 568 763 15 92 6 310 -16 400 -54 223
-188 433 -367 576 -126 101 -334 191 -484 210 -49 6 -228 13 -233 9z"/>
</g>
</svg>
