<?xml version="1.0" standalone="no"?>
<!DOCTYPE svg PUBLIC "-//W3C//DTD SVG 20010904//EN"
 "http://www.w3.org/TR/2001/REC-SVG-20010904/DTD/svg10.dtd">
<svg version="1.0" xmlns="http://www.w3.org/2000/svg"
 width="700.000000pt" height="700.000000pt" viewBox="0 0 700.000000 700.000000"
 preserveAspectRatio="xMidYMid meet">
<metadata>
Created by potrace 1.14, written by Peter Selinger 2001-2017
</metadata>
<g transform="translate(0.000000,700.000000) scale(0.100000,-0.100000)"
fill="#000000" stroke="none">
<path d="M3278 6996 c-1 -2 -42 -6 -89 -10 -47 -4 -95 -8 -105 -10 -10 -2 -48
-7 -84 -12 -36 -4 -67 -8 -70 -9 -3 -1 -25 -5 -50 -9 -25 -4 -101 -21 -170
-38 -69 -16 -134 -31 -146 -34 -39 -7 -228 -72 -346 -117 -141 -55 -364 -163
-471 -229 -43 -26 -81 -48 -83 -48 -5 0 -205 -134 -234 -157 -8 -6 -51 -40
-95 -74 -426 -331 -813 -825 -1020 -1299 -25 -58 -50 -114 -55 -125 -45 -93
-150 -427 -176 -560 -2 -11 -10 -54 -19 -95 -29 -147 -35 -194 -52 -370 -15
-164 -8 -597 12 -711 2 -13 7 -46 10 -74 42 -397 239 -953 465 -1318 30 -48
60 -95 65 -105 6 -10 35 -53 66 -97 385 -547 930 -983 1539 -1232 171 -70 442
-156 564 -179 12 -2 32 -6 46 -9 140 -29 298 -52 430 -63 123 -9 2871 -9 2928
0 424 72 755 392 841 813 15 75 19 125 16 223 -4 133 -6 152 -31 242 -100 364
-384 641 -744 728 -109 27 -152 31 -270 27 -285 -8 -489 -98 -727 -321 -321
-300 -544 -444 -933 -602 -98 -40 -254 -81 -367 -97 -21 -3 -49 -8 -63 -10
-141 -26 -568 -26 -709 0 -9 1 -36 6 -61 10 -76 12 -311 72 -400 104 -601 209
-1108 654 -1397 1226 -128 253 -201 487 -248 795 -18 123 -24 341 -12 505 13
175 20 221 72 452 23 100 140 407 168 442 7 8 11 17 10 20 -8 25 187 334 295
466 92 114 311 328 422 412 307 232 665 392 1045 467 246 48 601 55 835 16 30
-5 71 -12 90 -15 75 -12 250 -59 360 -97 132 -46 380 -164 490 -234 284 -181
548 -433 732 -699 97 -140 207 -343 259 -480 11 -27 23 -59 28 -70 31 -71 90
-286 110 -400 6 -33 13 -69 15 -80 29 -153 29 -617 0 -758 -2 -12 -7 -38 -10
-57 -3 -19 -13 -64 -21 -100 -8 -36 -17 -73 -19 -84 -12 -62 -71 -242 -99
-303 -8 -17 -15 -34 -15 -37 0 -3 -16 -39 -35 -80 -19 -41 -35 -77 -35 -79 0
-3 21 0 48 6 26 5 126 10 222 11 148 0 191 -3 279 -22 138 -31 256 -73 368
-132 l92 -48 30 76 c55 144 122 368 147 487 17 81 54 301 59 350 4 33 9 71 11
85 9 47 11 525 3 605 -15 165 -21 220 -24 225 -2 3 -6 30 -10 60 -9 75 -69
337 -99 435 -189 622 -521 1151 -997 1590 -412 380 -944 668 -1487 805 -121
30 -244 56 -312 65 -19 3 -46 7 -60 10 -13 2 -52 7 -86 11 -33 3 -74 8 -90 10
-32 5 -540 14 -546 10z"/>
</g>
</svg>
