<?xml version="1.0" standalone="no"?>
<!DOCTYPE svg PUBLIC "-//W3C//DTD SVG 20010904//EN"
 "http://www.w3.org/TR/2001/REC-SVG-20010904/DTD/svg10.dtd">
<svg version="1.0" xmlns="http://www.w3.org/2000/svg"
 width="700.000000pt" height="700.000000pt" viewBox="0 0 700.000000 700.000000"
 preserveAspectRatio="xMidYMid meet">
<g transform="translate(0.000000,700.000000) scale(0.100000,-0.100000)"
fill="#000000" stroke="none">
<path d="M3318 6915 c-2 -1 -43 -5 -93 -9 -49 -4 -101 -8 -115 -10 -14 -2 -52
-7 -85 -11 -144 -16 -423 -82 -600 -140 -282 -94 -621 -260 -840 -413 -27 -20
-63 -45 -80 -56 -16 -12 -32 -23 -35 -27 -3 -3 -23 -18 -45 -34 -137 -100
-390 -337 -516 -485 -317 -373 -545 -790 -682 -1247 -54 -178 -98 -381 -113
-518 -3 -27 -7 -56 -9 -62 -9 -25 -19 -241 -19 -398 0 -174 9 -343 24 -445 5
-36 13 -87 16 -115 4 -27 8 -53 10 -56 2 -4 6 -24 10 -45 11 -77 66 -290 106
-408 132 -400 324 -751 591 -1084 119 -148 321 -355 457 -466 52 -43 106 -87
120 -99 42 -35 261 -182 350 -235 236 -139 556 -276 785 -337 164 -44 322 -79
400 -90 11 -1 56 -8 100 -14 44 -6 107 -14 140 -17 94 -10 2761 -12 2845 -2
438 51 798 398 864 835 81 531 -260 1025 -784 1135 -134 28 -367 26 -422 -3
-10 -6 -18 -8 -18 -5 0 3 -33 -6 -72 -20 -175 -59 -274 -123 -449 -290 -196
-187 -444 -350 -700 -462 -194 -85 -386 -139 -629 -177 -159 -25 -540 -24
-662 1 -13 2 -39 7 -58 10 -117 18 -156 27 -275 61 -584 168 -1083 549 -1402
1072 -56 92 -123 221 -123 236 0 8 -4 15 -8 17 -25 10 -132 334 -165 498 -41
205 -51 296 -51 495 0 215 17 371 64 570 29 122 102 338 140 414 4 9 18 39 31
66 191 405 533 783 922 1018 475 288 1038 405 1592 331 182 -25 438 -95 612
-170 85 -36 104 -46 243 -122 239 -131 503 -354 688 -582 71 -89 206 -280 196
-280 -3 0 3 -12 14 -27 26 -37 114 -212 147 -293 42 -104 106 -302 119 -370 2
-14 11 -59 19 -100 55 -267 55 -635 3 -895 -37 -177 -69 -288 -134 -456 l-29
-77 31 6 c65 12 322 5 411 -11 178 -32 344 -91 488 -175 32 -19 60 -32 62 -30
14 16 111 342 131 443 2 11 11 56 20 100 9 44 17 89 19 100 4 37 17 130 21
149 18 95 24 482 11 661 -38 521 -206 1046 -477 1495 -150 249 -305 446 -525
666 -308 309 -698 570 -1092 729 -49 20 -97 40 -108 45 -115 52 -482 149 -660
175 -111 16 -175 24 -250 31 -51 5 -472 13 -477 9z"/>
</g>
</svg>
